control3min_grf.mot
version=1
nRows=15
nColumns 19
inDegrees=yes
endheader
time	1_ground_force_vx	1_ground_force_vy	1_ground_force_vz	1_ground_force_px	1_ground_force_py	1_ground_force_pz	1_ground_torque_x	1_ground_torque_y	1_ground_torque_z	2_ground_force_vx	2_ground_force_vy	2_ground_force_vz	2_ground_force_px	2_ground_force_py	2_ground_force_pz	2_ground_torque_x	2_ground_torque_y	2_ground_torque_z
            1.253500	          -22.424812	          748.970385	          -74.002255	           -0.260088	            0.006007	           -0.355996	           -0.131651	            4.397036	           -0.434451	          -15.176354	          643.663418	           74.290925	           -0.255725	            0.005571	           -0.700553	            0.064012	           -2.714876	           -0.313348
            1.254000	          -22.425379	          747.709932	          -74.328661	           -0.260152	            0.006006	           -0.355927	           -0.127059	            4.236427	           -0.421136	          -15.076631	          642.006094	           74.378828	           -0.255794	            0.005569	           -0.700182	            0.062331	           -2.654215	           -0.307501
            1.254500	          -22.516672	          746.808162	          -74.240594	           -0.259843	            0.006006	           -0.355843	           -0.126433	            4.193400	           -0.416868	          -14.514227	          642.006450	           74.847870	           -0.255937	            0.005570	           -0.700449	            0.060123	           -2.659395	           -0.310044
            1.255000	          -22.608976	          746.448731	          -74.517041	           -0.259828	            0.006005	           -0.355733	           -0.128114	            4.229760	           -0.422252	          -14.000228	          642.376760	           74.802044	           -0.255763	            0.005571	           -0.700823	            0.056163	           -2.576922	           -0.300072
            1.255500	          -22.609135	          744.827218	          -74.707421	           -0.259705	            0.006006	           -0.355813	           -0.128758	            4.241742	           -0.425454	          -13.757297	          639.983381	           74.887259	           -0.255981	            0.005570	           -0.700594	            0.053551	           -2.491183	           -0.291504
            1.256000	          -22.608887	          742.844401	          -74.761776	           -0.259796	            0.006006	           -0.355884	           -0.129866	            4.266918	           -0.429434	          -13.523486	          640.166465	           75.404018	           -0.255946	            0.005571	           -0.700840	            0.052150	           -2.468626	           -0.290775
            1.256500	          -22.517737	          742.665228	          -74.992067	           -0.259610	            0.006005	           -0.355587	           -0.125395	            4.135681	           -0.417608	          -13.095814	          638.510326	           75.491781	           -0.256053	            0.005570	           -0.700735	            0.048667	           -2.372865	           -0.280546
            1.257000	          -22.563873	          741.764646	          -75.179242	           -0.259515	            0.006004	           -0.355461	           -0.120606	            3.964796	           -0.401840	          -12.716884	          637.405663	           75.816184	           -0.256120	            0.005570	           -0.700743	            0.047459	           -2.378790	           -0.282945
            1.257500	          -22.425767	          739.240696	          -75.144538	           -0.259395	            0.006006	           -0.355793	           -0.114259	            3.766436	           -0.382862	          -12.429638	          635.748012	           76.185576	           -0.256154	            0.005570	           -0.700694	            0.045975	           -2.351531	           -0.281798
            1.258000	          -22.426433	          738.521009	          -75.468625	           -0.259466	            0.006005	           -0.355581	           -0.114941	            3.785115	           -0.386797	          -12.380089	          635.011284	           76.276784	           -0.256202	            0.005570	           -0.700868	            0.043536	           -2.233065	           -0.268233
            1.258500	          -22.426038	          736.357821	          -75.477900	           -0.259482	            0.006006	           -0.355726	           -0.116909	            3.838690	           -0.393472	          -11.959104	          635.196886	           76.277261	           -0.256152	            0.005571	           -0.701207	            0.040420	           -2.146868	           -0.257805
            1.259000	          -22.518012	          734.195795	          -75.762091	           -0.259378	            0.006005	           -0.355709	           -0.118565	            3.865800	           -0.398914	          -11.722135	          634.460667	           76.415310	           -0.256153	            0.005572	           -0.701321	            0.039274	           -2.125689	           -0.256021
            1.259500	          -22.517976	          732.754063	          -75.859979	           -0.259458	            0.006006	           -0.355783	           -0.117878	            3.835851	           -0.397115	          -11.198728	          632.252048	           76.594919	           -0.256443	            0.005571	           -0.701277	            0.037639	           -2.125001	           -0.257436
            1.260000	          -22.425883	          732.393020	          -75.724181	           -0.259256	            0.006006	           -0.355716	           -0.112939	            3.688393	           -0.381353	          -10.821771	          631.699701	           76.968213	           -0.256288	            0.005572	           -0.701431	            0.035938	           -2.097826	           -0.255606
            1.260500	          -22.518540	          730.232174	          -76.283500	           -0.259256	            0.006005	           -0.355603	           -0.108272	            3.511037	           -0.366779	          -10.630966	          630.778943	           77.152561	           -0.256390	            0.005572	           -0.701687	            0.034581	           -2.051837	           -0.250967
